# xmcd
#
# Track frame offsets: 
#        150
#        31729
#        86030
#        97201
#        107835
#        120968
#        134971
#        146986
#        160026
#        162840
#        173541
#        185723
#        186555
#        197037
#        207305
#        221560
#        225840
#        230567
#        233211
#        240409
#        245007
#        246658
#        249542
#        260802
#        271696
#        284694
#        296549
#        308744
#        321209
#
# Disc length: 4356 seconds
#
# Revision: 0
# Processed by: cddbd v1.5.2PL0 Copyright (c) Steve Scherf et al.
# Submitted via: ExactAudioCopy v0.99pb5
#
DISCID=bc11021d
DTITLE=The Beatles  - Telecasts - Disc 3
DYEAR=1900
DGENRE=
TTITLE0=A Midsummer Night's Dream
TTITLE1=Interview
TTITLE2=She Loves You
TTITLE3=All My Loving
TTITLE4=Twist And Shout
TTITLE5=Roll Over Beethoven
TTITLE6=Long Tall Sally
TTITLE7=Can't Buy Me Love
TTITLE8=She Loves You
TTITLE9=If I Fell
TTITLE10=Kansas City\\Hey-Hey-Hey-Hey!
TTITLE11=Intro
TTITLE12=I'm A Loser
TTITLE13=Boys
TTITLE14=Deaf Ted, Danoota (And Me)
TTITLE15=About The Awful
TTITLE16=All Abord Speeching
TTITLE17=Good Dog Nigel
TTITLE18=Unhappy Frank
TTITLE19=The Wreatling Dog
TTITLE20=Outro
TTITLE21=It's A Long Way To Tipperary
TTITLE22=I Feel Fine
TTITLE23=I'm Down
TTITLE24=Act Naturally
TTITLE25=Ticket To Ride
TTITLE26=Yesterday
TTITLE27=Help!
TTITLE28=Outro
EXTD=
EXTT0=
EXTT1=
EXTT2=
EXTT3=
EXTT4=
EXTT5=
EXTT6=
EXTT7=
EXTT8=
EXTT9=
EXTT10=
EXTT11=
EXTT12=
EXTT13=
EXTT14=
EXTT15=
EXTT16=
EXTT17=
EXTT18=
EXTT19=
EXTT20=
EXTT21=
EXTT22=
EXTT23=
EXTT24=
EXTT25=
EXTT26=
EXTT27=
EXTT28=
PLAYORDER=
